<svg width="24" height="24" viewBox="0 0 24 24" fill="none" xmlns="http://www.w3.org/2000/svg">
<path d="M5.96875 10.593V8.61757C5.96875 8.50065 5.96875 8.45388 6.12137 8.45388C7.42967 8.45388 8.49306 8.37634 9.02106 8.68773C9.55029 8.99788 9.57244 9.42619 9.58106 9.55419C9.58967 9.68219 9.58598 9.86557 9.33983 10.3123C9.09367 10.7591 7.99213 10.7677 7.19706 10.7677H6.14475C6.01552 10.7677 5.96875 10.721 5.96875 10.593ZM9.5946 12.6631C9.7165 12.8187 9.80351 12.9987 9.84972 13.1909C9.89594 13.3831 9.90029 13.583 9.86247 13.777C9.82464 13.971 9.74554 14.1546 9.63052 14.3153C9.5155 14.4761 9.36725 14.6102 9.19583 14.7087C8.94403 14.8146 8.67392 14.8702 8.40075 14.8723H6.13244C6.01552 14.8723 5.96875 14.8723 5.96875 14.721V12.3825C5.96875 12.2656 5.96875 12.2188 6.12137 12.2188H7.62906C8.56444 12.2188 9.14906 12.1376 9.5946 12.6631Z" fill="black"/>
<path d="M17.8326 11.5803C17.7699 11.4324 17.6747 11.3006 17.5541 11.1945C17.4336 11.0884 17.2907 11.0108 17.136 10.9674C16.8269 10.8829 16.5034 10.865 16.1868 10.9149C15.8703 10.9648 15.5679 11.0812 15.2997 11.2566C15.0324 11.5267 14.8597 11.876 14.8074 12.2523C14.8074 12.384 14.8074 12.4086 14.9637 12.4086H17.8806C18.0246 12.4086 18.0246 12.4086 18.0123 12.2277C17.9985 12.0015 17.9381 11.7809 17.8326 11.5803ZM17.8326 11.5803C17.7699 11.4324 17.6735 11.3006 17.5529 11.1945C17.4323 11.0884 17.2907 11.0108 17.136 10.9674C16.8269 10.8829 16.5034 10.865 16.1868 10.9149C15.8703 10.9648 15.5679 11.0812 15.2997 11.2566C15.0324 11.5267 14.8585 11.876 14.8062 12.2523C14.8062 12.384 14.8062 12.4086 14.9625 12.4086H17.8806C18.0246 12.4086 18.0246 12.4086 18.0123 12.2277C17.9985 12.0015 17.9356 11.7809 17.8302 11.5803M19.2 0H4.8C3.52696 0 2.30606 0.505713 1.40589 1.40589C0.505713 2.30606 0 3.52696 0 4.8V19.2C0 20.473 0.505713 21.6939 1.40589 22.5941C2.30606 23.4943 3.52696 24 4.8 24H19.2C20.473 24 21.6939 23.4943 22.5941 22.5941C23.4943 21.6939 24 20.473 24 19.2V4.8C24 3.52696 23.4943 2.30606 22.5941 1.40589C21.6939 0.505713 20.473 0 19.2 0ZM14.496 7.64308C14.496 7.54831 14.496 7.51138 14.6043 7.51138H18.4923V8.52062C18.4923 8.52062 18.496 8.592 18.432 8.592H14.6646C14.496 8.592 14.496 8.592 14.496 8.42462V7.64308ZM10.896 16.464C9.41908 17.2677 6.93662 16.944 3.99631 16.944V6.99569H8.688C9.888 6.99569 11.3157 7.296 11.6997 8.56739C11.8991 9.12268 11.887 9.73197 11.6656 10.2789C11.4442 10.8258 11.0292 11.272 10.4997 11.5323C10.9878 11.7129 11.4139 12.0296 11.7276 12.4448C12.0413 12.86 12.2295 13.3564 12.2699 13.8753C12.3103 14.3941 12.2012 14.9137 11.9555 15.3724C11.7099 15.8312 11.3379 16.21 10.8837 16.464H10.896ZM19.8363 13.632H15.0363C14.9046 13.632 14.784 13.7034 14.8074 13.872C14.9514 14.5797 15.2751 15.3243 16.0086 15.4326C16.3959 15.5479 16.8107 15.5302 17.1868 15.3823C17.5629 15.2344 17.8786 14.9648 18.0837 14.6166C18.0837 14.6166 18.144 14.544 18.1797 14.544H19.7403C19.7403 14.544 19.8363 14.544 19.8117 14.6277C19.6471 15.0937 19.4036 15.528 19.0917 15.9114C18.6746 16.3098 18.1713 16.6067 17.6208 16.7791C17.0704 16.9516 16.4876 16.9948 15.9178 16.9055C15.3479 16.8162 14.8063 16.5968 14.335 16.2643C13.8636 15.9318 13.4753 15.4952 13.2 14.9883C13.0307 14.6503 12.9251 14.284 12.8886 13.9077C12.6746 12.962 12.8382 11.97 13.3446 11.1431C13.851 10.3162 14.6603 9.71972 15.6 9.48062C18.3237 8.89231 20.0517 10.7643 20.0517 13.4043C20.0557 13.4352 20.0526 13.4665 20.0426 13.496C20.0326 13.5255 20.0159 13.5522 19.9939 13.5742C19.9719 13.5962 19.9452 13.6129 19.9157 13.6229C19.8862 13.6329 19.8549 13.636 19.824 13.632H19.8363ZM17.1483 10.9674C16.8395 10.8817 16.5157 10.8641 16.1994 10.9157C15.8831 10.9649 15.6 11.0252 15.312 11.2566C15.024 11.4868 14.8714 11.8757 14.8197 12.2523C14.8197 12.384 14.8197 12.4086 14.976 12.4086H17.8806C18.0246 12.4086 18.0246 12.4086 18.0123 12.2277C17.9985 12.0015 17.9381 11.7809 17.8326 11.5803C17.7699 11.4324 17.6747 11.3006 17.5541 11.1945C17.4336 11.0884 17.2907 11.0108 17.136 10.9674H17.1483Z" fill="black"/>
</svg>
