<svg width="14" height="14" viewBox="0 0 14 14" fill="none" xmlns="http://www.w3.org/2000/svg">
<path fill-rule="evenodd" clip-rule="evenodd" d="M7.63637 11.4546V14H6.36363V11.4546H7.63637ZM10.5998 9.69986L12.3997 11.4998L11.4998 12.3997L9.69986 10.5998L10.5998 9.69986ZM3.40018 9.69986L4.30014 10.5998L2.50022 12.3997L1.60027 11.4998L3.40018 9.69986ZM7.00001 3.52049C8.9217 3.52049 10.4795 5.0783 10.4795 7.00001C10.4795 8.9217 8.9217 10.4795 7.00001 10.4795C6.54283 10.4804 6.08997 10.391 5.66742 10.2165C5.24488 10.0419 4.86095 9.78563 4.53767 9.46235C4.21439 9.13908 3.95812 8.75515 3.78356 8.3326C3.609 7.91005 3.51959 7.4572 3.52046 7.00001C3.52046 5.0783 5.0783 3.52049 7.00001 3.52049ZM7.00001 4.79319C5.78121 4.79319 4.79319 5.78124 4.79319 7.00243C4.79264 7.29207 4.84928 7.57897 4.95987 7.84666C5.07045 8.11436 5.2328 8.35759 5.4376 8.5624C5.85125 8.97605 6.41258 9.20791 7.00001 9.20681V4.79319ZM14 6.36363V7.63637H11.4546V6.36363H14ZM2.54545 6.36363V7.63637H0V6.36363H2.54545ZM2.50022 1.60027L4.30014 3.40018L3.40018 4.30014L1.60027 2.50022L2.50022 1.60027ZM11.4998 1.60027L12.3997 2.50022L10.5998 4.30014L9.69986 3.40018L11.4998 1.60027ZM7.63634 0V2.54545H6.3636V0H7.63634Z" fill="white"/>
</svg>
