<svg width="17" height="16" viewBox="0 0 17 16" fill="none" xmlns="http://www.w3.org/2000/svg">
<path d="M14.3892 9.99074C13.4877 10.1675 12.5582 10.1424 11.6676 9.91727C10.7769 9.69216 9.94711 9.27262 9.23782 8.68877C8.52853 8.10491 7.95732 7.37124 7.56522 6.54044C7.17312 5.70964 6.96985 4.80232 6.97002 3.88363C6.97002 2.75041 7.21891 1.68797 7.7478 0.772522C6.4594 0.772928 5.1961 1.12891 4.09705 1.80126C2.998 2.47361 2.10583 3.43625 1.5188 4.58314C0.931774 5.73004 0.672665 7.0167 0.770012 8.30142C0.867359 9.58613 1.31739 10.8191 2.07053 11.8644C2.82367 12.9098 3.8507 13.727 5.03852 14.226C6.22633 14.7251 7.52884 14.8867 8.80259 14.6929C10.0763 14.4992 11.2719 13.9577 12.2576 13.128C13.2433 12.2984 13.981 11.2127 14.3892 9.99074ZM11.345 1.5503L11.3792 1.61252L11.4422 1.64752L11.38 1.68174L11.345 1.74474L11.3108 1.68252L11.2478 1.64752L11.31 1.6133L11.345 1.5503ZM14.3589 5.0503L14.4966 5.30152L14.7478 5.43919L14.4966 5.57685L14.3589 5.82808L14.2212 5.57685L13.97 5.43919L14.2212 5.30152L14.3589 5.0503Z" stroke="#757575" stroke-width="1.5"/>
</svg>
